<?xml version="1.0" standalone="no"?><!DOCTYPE svg PUBLIC "-//W3C//DTD SVG 1.1//EN" "http://www.w3.org/Graphics/SVG/1.1/DTD/svg11.dtd"><svg t="1588342735551" class="icon" viewBox="0 0 1024 1024" version="1.1" xmlns="http://www.w3.org/2000/svg" p-id="878" xmlns:xlink="http://www.w3.org/1999/xlink" width="200" height="200"><defs><style type="text/css"></style></defs><path d="M513.8 517.1c-6.4 0-12.8-1.5-18.6-4.4L124.1 327.3c-14.1-7.1-23-21.5-23.1-37.3 0-15.8 8.9-30.3 23-37.3L494.4 67.3c11.7-5.8 25.5-5.8 37.3 0l371.1 185.4c14.1 7.1 23.1 21.5 23.1 37.3 0 15.8-8.9 30.3-23 37.3L532.5 512.6c-5.8 3-12.3 4.5-18.7 4.5zM236 289.9l277.8 138.8L790.9 290 513.1 151.3 236 289.9z" fill="#3F85FF" p-id="879"></path><path d="M322.8 587.7c-23 0-41.7-18.7-41.7-41.7V387.1c0-23 18.7-41.7 41.7-41.7s41.7 18.7 41.7 41.7V546c0 23-18.7 41.7-41.7 41.7z" fill="#A4BEEC" p-id="880"></path><path d="M513.4 953.1c-6.4 0-12.8-1.5-18.6-4.4L124.1 763.3c-14.1-7-23.1-21.5-23.1-37.3V290c0-14.5 7.5-27.9 19.8-35.5 12.4-7.6 27.7-8.2 40.6-1.8L532.1 438c14.1 7.1 23.1 21.5 23.1 37.3v436c0 14.4-7.5 27.9-19.8 35.5-6.7 4.2-14.3 6.3-22 6.3z m-329-252.9l287.3 143.7V501.1L184.4 357.5v342.7z" fill="#3F85FF" p-id="881"></path><path d="M513.4 953.1c-7.6 0-15.2-2.1-21.9-6.2-12.3-7.6-19.8-21.1-19.8-35.5v-436c0-15.8 8.9-30.2 23.1-37.3l370.7-185.3c13-6.4 28.3-5.8 40.6 1.8s19.8 21 19.8 35.5v436c0 15.8-9 30.3-23 37.3L532.1 948.7c-5.9 2.9-12.3 4.4-18.7 4.4z m41.8-452v342.8l287.3-143.7V357.5L555.2 501.1z" fill="#3F85FF" p-id="882"></path></svg>